<svg width="184" height="184" viewBox="0 0 184 184" fill="none" xmlns="http://www.w3.org/2000/svg">
  <defs>
    <linearGradient id="bg" x1="44" y1="18" x2="142" y2="162" gradientUnits="userSpaceOnUse">
      <stop stop-color="#F7FCFF"/>
      <stop offset="1" stop-color="#CFEFFF"/>
    </linearGradient>
    <linearGradient id="head" x1="52" y1="58" x2="132" y2="134" gradientUnits="userSpaceOnUse">
      <stop stop-color="#1F7BFF"/>
      <stop offset="1" stop-color="#0E5AC9"/>
    </linearGradient>
    <filter id="shadow" x="18" y="20" width="148" height="150" filterUnits="userSpaceOnUse" color-interpolation-filters="sRGB">
      <feDropShadow dx="0" dy="16" stdDeviation="13" flood-color="#2D72C9" flood-opacity=".26"/>
    </filter>
  </defs>
  <rect x="18" y="18" width="148" height="148" rx="52" fill="url(#bg)"/>
  <g filter="url(#shadow)">
    <path d="M92 49V34" stroke="#1C71EA" stroke-width="7" stroke-linecap="round"/>
    <circle cx="92" cy="28" r="8" fill="#52B8FF"/>
    <rect x="48" y="62" width="88" height="68" rx="28" fill="url(#head)"/>
    <rect x="59" y="74" width="66" height="35" rx="17.5" fill="#0D2B57"/>
    <circle cx="78" cy="91" r="6" fill="#8FEAFF"/>
    <circle cx="106" cy="91" r="6" fill="#8FEAFF"/>
    <path d="M78 115C84 121 100 121 106 115" stroke="#8FEAFF" stroke-width="5" stroke-linecap="round"/>
    <rect x="37" y="82" width="15" height="30" rx="7.5" fill="#50B9FF"/>
    <rect x="132" y="82" width="15" height="30" rx="7.5" fill="#50B9FF"/>
    <path d="M69 136H115" stroke="#1C71EA" stroke-width="8" stroke-linecap="round"/>
    <path d="M77 148H107" stroke="#82D9FF" stroke-width="6" stroke-linecap="round"/>
  </g>
  <circle cx="137" cy="51" r="13" fill="#EAF6FF"/>
  <path d="M131 51H143M137 45V57" stroke="#1C71EA" stroke-width="4" stroke-linecap="round"/>
</svg>
